<svg id="visual" viewBox="0 0 900 750" width="900" height="750" xmlns="http://www.w3.org/2000/svg" xmlns:xlink="http://www.w3.org/1999/xlink" version="1.1"><rect width="900" height="750" fill="#0606fc"></rect><g><g transform="translate(678 211)"><path d="M0 -154.6L109.3 -109.3L154.6 0L109.3 109.3L0 154.6L-109.3 109.3L-154.6 0L-109.3 -109.3Z" fill="none" stroke="#00ff27" stroke-width="2"></path></g><g transform="translate(49 212)"><path d="M0 -65L46 -46L65 0L46 46L0 65L-46 46L-65 0L-46 -46Z" fill="none" stroke="#00ff27" stroke-width="2"></path></g><g transform="translate(797 686)"><path d="M0 -100L70.7 -70.7L100 0L70.7 70.7L0 100L-70.7 70.7L-100 0L-70.7 -70.7Z" stroke="#00ff27" fill="none" stroke-width="2"></path></g><g transform="translate(142 555)"><path d="M0 -85L60.1 -60.1L85 0L60.1 60.1L0 85L-60.1 60.1L-85 0L-60.1 -60.1Z" stroke="#00ff27" fill="none" stroke-width="2"></path></g><g transform="translate(355 18)"><path d="M0 -35L24.7 -24.7L35 0L24.7 24.7L0 35L-24.7 24.7L-35 0L-24.7 -24.7Z" stroke="#00ff27" fill="none" stroke-width="2"></path></g><g transform="translate(520 512)"><path d="M0 -148L104.7 -104.7L148 0L104.7 104.7L0 148L-104.7 104.7L-148 0L-104.7 -104.7Z" stroke="#00ff27" fill="none" stroke-width="2"></path></g></g></svg>